<?xml version="1.0" standalone="no"?>
<!DOCTYPE svg PUBLIC "-//W3C//DTD SVG 20010904//EN"
 "http://www.w3.org/TR/2001/REC-SVG-20010904/DTD/svg10.dtd">
<svg version="1.0" xmlns="http://www.w3.org/2000/svg"
 width="700.000000pt" height="700.000000pt" viewBox="0 0 700.000000 700.000000"
 preserveAspectRatio="xMidYMid meet">
<metadata>
Created by potrace 1.11, written by Peter Selinger 2001-2013
</metadata>
<g transform="translate(0.000000,700.000000) scale(0.100000,-0.100000)"
fill="#000000" stroke="none">
<path d="M3809 6776 c-2 -2 -49 -7 -104 -11 -55 -4 -109 -9 -119 -11 -11 -2
-38 -6 -61 -9 -22 -3 -51 -8 -65 -10 -14 -2 -44 -7 -67 -10 -64 -9 -266 -60
-378 -95 -96 -31 -126 -42 -243 -89 -295 -120 -579 -298 -869 -544 -51 -43
-288 -280 -343 -343 -45 -50 -62 -72 -152 -188 -27 -33 -51 -65 -56 -71 -24
-29 -134 -200 -174 -270 -200 -349 -333 -737 -384 -1121 -4 -33 -9 -61 -9 -64
-1 -3 -5 -39 -9 -80 -29 -305 -18 -687 29 -941 2 -9 6 -34 9 -55 4 -22 8 -46
11 -54 2 -8 7 -28 10 -45 13 -69 17 -85 46 -185 106 -368 273 -706 498 -1010
89 -120 217 -267 336 -386 100 -100 136 -133 245 -229 59 -52 284 -216 342
-250 9 -5 48 -29 86 -52 150 -91 334 -178 522 -246 115 -42 346 -107 430 -121
19 -3 46 -8 60 -11 55 -11 171 -27 290 -39 119 -13 591 -14 650 -3 14 3 52 8
85 12 558 59 1102 282 1567 642 61 48 146 144 175 199 62 117 66 151 68 539 0
193 -3 373 -7 400 -19 124 -99 232 -216 291 -51 26 -67 29 -147 29 -131 -1
-182 -32 -310 -191 -61 -76 -201 -210 -298 -286 -213 -164 -464 -288 -712
-352 -56 -14 -75 -18 -150 -31 -16 -3 -41 -7 -55 -10 -147 -26 -543 -26 -738
0 -18 2 -52 7 -75 10 -123 16 -287 60 -373 100 -53 24 -76 41 -94 69 -30 50
-35 111 -13 158 11 23 524 545 1368 1393 743 746 1456 1463 1585 1594 l235
237 0 394 0 395 -620 1 c-605 1 -621 1 -660 21 -55 29 -85 63 -105 123 -32 95
-22 117 205 440 104 147 117 170 102 175 -107 39 -333 103 -419 120 -70 13
-84 16 -98 20 -8 3 -37 7 -65 10 -27 3 -57 8 -65 10 -8 2 -44 7 -80 10 -36 4
-74 9 -85 12 -23 5 -531 14 -536 9z m482 -1230 c69 -4 136 -9 150 -11 13 -2
42 -6 64 -9 183 -21 259 -49 287 -106 21 -43 22 -81 4 -123 -8 -18 -218 -237
-473 -494 -252 -254 -820 -826 -1263 -1273 -443 -446 -817 -818 -832 -826 -78
-41 -162 6 -186 104 -43 182 -62 375 -63 647 0 215 5 274 46 500 10 59 69 253
91 302 8 17 14 33 14 36 0 14 79 171 123 246 105 179 312 419 470 549 32 26
68 55 80 65 12 11 65 47 117 82 193 127 445 231 660 273 148 30 162 31 285 38
61 4 111 7 112 8 3 3 191 -2 314 -8z"/>
</g>
</svg>
