<svg width="1080" height="1080" viewBox="0 0 1080 1080" fill="none" xmlns="http://www.w3.org/2000/svg">
<g clip-path="url(#clip0)">
<path d="M920.834 719.8C902.306 713.149 881.603 718.718 868.898 733.811C856.759 748.239 848.142 758.205 843.062 763.715C781.226 825.277 706.731 856.039 619.589 856.039C560.796 856.039 515.292 848.818 483.088 834.353C466.586 826.95 462.481 805.318 475.261 792.479L934.038 331.394L962 303.019V181.079L777.864 181.026C752.32 181.021 737.355 152.113 752.012 131.088L797.956 65.1619C742.706 44.4566 683.276 34 619.584 34C481.195 34 362.841 83.4209 264.504 182.252C166.158 281.094 117 400.337 117 540.003C117 679.679 166.158 798.922 264.504 897.759C362.841 996.6 481.2 1046 619.584 1046C737.519 1046 840.814 1010.39 929.488 939.196C949.851 922.845 961.995 898.254 961.995 872.06V777.588C961.995 751.793 945.863 728.786 921.704 720.109L920.834 719.8ZM305.14 540.008C305.14 452.428 335.902 377.708 397.442 315.858C458.971 254.02 533.02 223.092 619.589 223.092C665.554 223.092 701.03 226.359 726.028 232.904C742.313 237.168 747.605 257.782 735.722 269.763L348.825 659.406C338.182 670.123 320.179 665.258 316.022 650.697C308.767 625.281 305.14 588.39 305.14 540.008Z" fill="url(#paint0_linear)"/>
</g>
<defs>
<linearGradient id="paint0_linear" x1="539.5" y1="34" x2="539.5" y2="1046" gradientUnits="userSpaceOnUse">
<stop stop-color="#FF6ADE"/>
<stop offset="1" stop-color="#3235FB"/>
</linearGradient>
<clipPath id="clip0">
<rect width="1080" height="1080" fill="white"/>
</clipPath>
</defs>
</svg>
