<?xml version="1.0" encoding="utf-8"?>
<!-- Generator: Adobe Illustrator 22.1.0, SVG Export Plug-In . SVG Version: 6.00 Build 0)  -->
<svg version="1.1" id="Layer_1" xmlns="http://www.w3.org/2000/svg" xmlns:xlink="http://www.w3.org/1999/xlink" x="0px" y="0px"
	 viewBox="0 0 900 371" style="enable-background:new 0 0 900 371;" xml:space="preserve">
<style type="text/css">
	.st0{clip-path:url(#SVGID_2_);}
	.st1{fill:url(#SVGID_3_);}
	.st2{fill:#FFFFFF;}
	.st3{fill:none;}
</style>
<g>
	<defs>
		<rect id="SVGID_1_" width="900" height="370.2"/>
	</defs>
	<clipPath id="SVGID_2_">
		<use xlink:href="#SVGID_1_"  style="overflow:visible;"/>
	</clipPath>
	<g class="st0">
		
			<linearGradient id="SVGID_3_" gradientUnits="userSpaceOnUse" x1="3.8137" y1="381.2766" x2="903.8138" y2="11.2766" gradientTransform="matrix(1 0 0 -1 0 372)">
			<stop  offset="0" style="stop-color:#FF66DE"/>
			<stop  offset="1" style="stop-color:#5F63FF"/>
		</linearGradient>
		<path class="st1" d="M752.9,96.1c0-3.5,0.6-6.8,1.7-9.8c-3.1-1.4-6-3.3-8.6-5.9c-5.7-5.6-8.6-12.4-8.6-20.5s2.9-14.9,8.6-20.5
			s12.5-8.4,20.3-8.4c1.1,0,2.1,0,3.1,0.1c0.7-8.2,4.1-15.2,10.1-21.1c6.8-6.7,14.9-10,24.2-10c9.5,0,17.7,3.3,24.5,10
			c1.8,1.8,3.4,3.7,4.7,5.7c5.4-3.9,11.6-5.9,18.5-5.9c8.7,0,16.2,3.1,22.5,9.2c3.7,3.6,6.3,7.7,7.8,12.3c4.4,0.8,8.4,2.8,11.8,6.1
			c4.3,4.2,6.5,9.4,6.5,15.6c0,6.1-2.1,11.3-6.5,15.6c-1.2,1.2-2.5,2.2-3.8,3c0.1,0.9,0.2,1.9,0.2,2.9c0,7.1-2.5,13-7.5,17.9
			c-1.7,1.7-3.6,3.1-5.6,4.2l-0.3,0.9H752.9V96.1z M488.9,171v125.6c0,0.2,0,0.4-0.1,0.6c-4.9,7.5-7.4,16.1-7.4,25.7
			c0,9.7,2.4,18.2,7.4,25.7c0.1,0.1,0.2,0.3,0.2,0.5v6.6c0,8-6.5,14.5-14.5,14.5h-34.9c-0.2,0-0.3,0-0.4-0.1h-43.7
			c-12.6,0-24.2-6.9-30.2-17.9l-60.4-110.3v103.7c0,13.5-10.9,24.4-24.4,24.4c-0.7,0-1.3-0.6-1.3-1.3V25.8
			c14.2,0,25.7,11.5,25.7,25.7v115.9l28.8-35.3c6.4-7.8,15.9-12.3,26-12.3l78.8-0.6c0.1-0.1,0.1-0.3,0.1-0.4V44.2
			c0-10.1,8.2-18.3,18.3-18.3h13.7c10.1,0,18.3,8.2,18.3,18.3v74.5c0,0.6,0.5,1,1,1h25.7c10.1,0,18.3,8.2,18.3,18.3v13.7
			c0,10.1-8.2,18.3-18.3,18.3h-25.7C489.3,170,488.9,170.5,488.9,171z M238.6,273.7c-5.5-2-11.6-0.3-15.4,4.1
			c-3.6,4.3-6.2,7.2-7.7,8.8c-18.3,18.2-40.5,27.3-66.3,27.3c-17.4,0-31-2.1-40.5-6.4c-4.9-2.2-6.1-8.6-2.3-12.4L242.5,159l8.3-8.4
			v-36h-54.6c-7.6,0-12-8.5-7.7-14.7l13.6-19.5c-16.4-6.1-34-9.2-52.9-9.2C108.1,71.2,73,85.8,43.8,115C14.6,144.1,0,179.3,0,220.6
			c0,41.2,14.6,76.5,43.8,105.6C73,355.4,108.1,370,149.2,370c35,0,65.7-10.5,92-31.5c6-4.8,9.6-12.1,9.6-19.8v-27.9
			c0-7.6-4.8-14.4-12-17L238.6,273.7z M55.8,220.6c0-25.9,9.1-47.9,27.4-66.2s40.2-27.4,65.9-27.4c13.6,0,24.2,1,31.6,2.9
			c4.8,1.3,6.4,7.3,2.9,10.9l-114.8,115c-3.2,3.2-8.5,1.7-9.7-2.6C56.9,245.8,55.8,234.9,55.8,220.6z M876,359.1V130.5
			c0-6.1-4.9-10.9-10.9-10.9h-28.5c-6,0-10.9,4.9-10.9,10.9v228.6c0,6,4.9,10.9,10.9,10.9h28.5C871.1,370,876,365.1,876,359.1z
			 M747.6,125c0,4.5-5.3,6.9-8.7,4c-22.3-19.5-47.6-29.2-75.9-29.2c-38.3,0-70.9,13.5-97.9,40.5s-40.5,59.6-40.5,97.9
			c0,11.7,1.3,22.9,3.8,33.6c0.5,2.2,2.4,3.8,4.6,4c11.2,0.9,20.9,5.4,29.1,13.5c9.3,9.1,14,20.3,14,33.5c0,5.9-0.9,11.4-2.8,16.5
			c-0.7,2-0.1,4.4,1.5,5.8c25,20.5,54.3,25,88.1,25c28.4,0,53.7-4.7,76-23.1c3.5-2.9,8.7-0.5,8.7,4v14c0,2.9,2.4,5.3,5.3,5.3h40
			c2.9,0,5.3-2.4,5.3-5.3V141.8c0-12.2-9.9-22.1-22.1-22.1h-23.2C749.9,119.7,747.6,122.1,747.6,125z M747.6,256.1
			c0,0.4,0,0.7-0.1,1.1c-3,15.5-10.7,29.6-23.2,42.3c-17,16.9-37.5,25.3-61.3,25.3c-24,0-44.5-8.5-61.4-25.4
			c-16.9-16.9-25.4-37.3-25.4-61.2c0-24,8.5-44.4,25.4-61.3c16.9-16.9,37.4-25.3,61.4-25.3c23.8,0,44.3,8.4,61.3,25.3
			c12.5,12.7,20.2,26.7,23.2,42.3c0.1,0.4,0.1,0.7,0.1,1.1V256.1z M528.9,356.3c18.6,0,33.7-15.1,33.7-33.7s-15.1-33.7-33.7-33.7
			c-18.6,0-33.7,15.1-33.7,33.7S510.3,356.3,528.9,356.3z"/>
	</g>
</g>
<path class="st2" d="M387.4,173.2H426c0.5,0,1,0.4,1,1v142.3l-91.3-102.9c-3.3-3.7-2.3-9.5,2-12L387.4,173.2z"/>
<g>
	<path class="st3" d="M889.7,71.6c0.1,0.9,0.2,1.9,0.2,2.9c0,7.1-2.5,13-7.5,17.9c-1.7,1.7-3.6,3.1-5.6,4.2l-0.3,0.9H752.9v-1.4
		c0-3.5,0.6-6.8,1.7-9.8c-3.1-1.4-6-3.3-8.6-5.9c-5.7-5.6-8.6-12.4-8.6-20.5c0-8.1,2.9-14.9,8.6-20.5c5.7-5.6,12.5-8.4,20.3-8.4
		c1.1,0,2.1,0,3.1,0.1c0.7-8.2,4.1-15.2,10.1-21.1c6.8-6.7,14.9-10,24.2-10H0v220.6c0-41.3,14.6-76.5,43.8-105.6
		C73,85.8,108.1,71.2,149.2,71.2c18.9,0,36.5,3.1,52.9,9.2l-13.6,19.5c-4.3,6.2,0.1,14.7,7.7,14.7h54.6v36l-8.3,8.4L106.4,295.1
		c-3.8,3.8-2.6,10.2,2.3,12.4c9.5,4.3,23.1,6.4,40.5,6.4c25.8,0,48-9.1,66.3-27.3c1.5-1.6,4.1-4.5,7.7-8.8c3.8-4.4,9.9-6.1,15.4-4.1
		l0.2,0.1c7.2,2.6,12,9.4,12,17v27.9c0,7.7-3.6,15-9.6,19.8c-26.3,21-57,31.5-92,31.5c-41.1,0-76.2-14.6-105.4-43.8
		C14.6,297.1,0,261.8,0,220.6v149.6h439.6c-0.2,0-0.3,0-0.4-0.1h-43.7c-12.6,0-24.2-6.9-30.2-17.9l-60.4-110.3v103.7
		c0,13.5-10.9,24.4-24.4,24.4c-0.7,0-1.3-0.6-1.3-1.3V25.8c14.2,0,25.7,11.5,25.7,25.7v115.9l28.8-35.3c6.4-7.8,15.9-12.3,26-12.3
		l78.8-0.6c0.1-0.1,0.1-0.3,0.1-0.4V44.2c0-10.1,8.2-18.3,18.3-18.3h13.7c10.1,0,18.3,8.2,18.3,18.3v74.5c0,0.6,0.5,1,1,1h25.7
		c10.1,0,18.3,8.2,18.3,18.3v13.7c0,10.1-8.2,18.3-18.3,18.3h-25.7c-0.6,0-1,0.5-1,1v125.6c0,0.2,0,0.4-0.1,0.6
		c-4.9,7.5-7.4,16.1-7.4,25.7c0,9.7,2.4,18.2,7.4,25.7c0.1,0.1,0.2,0.3,0.2,0.5v6.6c0,8-6.5,14.5-14.5,14.5h277.4
		c-2.4-0.5-4.3-2.6-4.3-5.2v-14c0-4.5-5.2-6.9-8.7-4c-22.3,18.4-47.6,23.1-76,23.1c-33.8,0-63.1-4.5-88.1-25
		c-1.6-1.4-2.2-3.8-1.5-5.8c1.9-5.1,2.8-10.6,2.8-16.5c0-13.2-4.7-24.4-14-33.5c-8.2-8.1-17.9-12.6-29.1-13.5
		c-2.2-0.2-4.1-1.8-4.6-4c-2.5-10.7-3.8-21.9-3.8-33.6c0-38.3,13.5-70.9,40.5-97.9s59.6-40.5,97.9-40.5c28.3,0,53.6,9.7,75.9,29.2
		c3.4,2.9,8.7,0.5,8.7-4c0-2.9,2.3-5.3,5.3-5.3h23.2c12.2,0,22.1,9.9,22.1,22.1V365c0,2.6-1.9,4.7-4.3,5.2H900V53
		c0,6.1-2.1,11.3-6.5,15.6C892.3,69.8,891,70.8,889.7,71.6z M528.9,288.9c18.6,0,33.7,15.1,33.7,33.7s-15.1,33.7-33.7,33.7
		s-33.7-15.1-33.7-33.7S510.3,288.9,528.9,288.9z M876,359.1c0,6-4.9,10.9-10.9,10.9h-28.5c-6,0-10.9-4.9-10.9-10.9V130.5
		c0-6,4.9-10.9,10.9-10.9h28.5c6,0,10.9,4.8,10.9,10.9V359.1z"/>
	<path class="st3" d="M68.8,255.8l114.8-115c3.5-3.6,1.9-9.6-2.9-10.9c-7.4-1.9-18-2.9-31.6-2.9c-25.7,0-47.6,9.1-65.9,27.4
		c-18.3,18.3-27.4,40.3-27.4,66.2c0,14.3,1.1,25.2,3.3,32.6C60.3,257.5,65.6,259,68.8,255.8z"/>
	<path class="st3" d="M663,151.6c-24,0-44.5,8.4-61.4,25.3c-16.9,16.9-25.4,37.3-25.4,61.3c0,23.9,8.5,44.3,25.4,61.2
		c16.9,16.9,37.4,25.4,61.4,25.4c23.8,0,44.3-8.4,61.3-25.3c12.5-12.7,20.2-26.8,23.2-42.3c0.1-0.4,0.1-0.7,0.1-1.1v-35.8
		c0-0.4,0-0.7-0.1-1.1c-3-15.6-10.7-29.6-23.2-42.3C707.3,160,686.8,151.6,663,151.6z"/>
	<path class="st3" d="M803.7,0c9.5,0,17.7,3.3,24.5,10c1.8,1.8,3.4,3.7,4.7,5.7c5.4-3.9,11.6-5.9,18.5-5.9c8.7,0,16.2,3.1,22.5,9.2
		c3.7,3.6,6.3,7.7,7.8,12.3c4.4,0.8,8.4,2.8,11.8,6.1c4.3,4.2,6.5,9.4,6.5,15.6V0H803.7z"/>
</g>
</svg>
